# 3ds Max Wavefront OBJ Exporter v0.99 - (c)2007 guruware
# File Created: 21.08.2022 18:41:15

mtllib wall_corner_out.mtl

#
# object Cube_005
#
o Cube_005

v 5120.0000 0.0027 -1920.0891
v 0.0000 0.0027 -1920.0891
v 0.0000 1416.5676 -1920.0891
v 5120.0000 1416.5676 -1920.0891
v 5120.0000 1706.6694 -0.0891
v 0.0000 1706.6694 -0.0891
v 0.0000 1416.5680 260.9211
v 5120.0000 1416.5680 260.9211
v 5120.0000 5120.0024 -0.0891
v 5120.0000 5120.0024 -1920.0891
v 0.0000 5120.0024 -1920.0891
v 0.0000 5120.0024 -0.0891
v 5120.0000 3413.3359 -1920.0891
v 0.0000 3413.3359 -1920.0891
v 5120.0000 1706.6694 -1920.0891
v 0.0000 1706.6694 -1920.0891
v 0.0000 3413.3359 -0.0891
v 5120.0000 3413.3359 -0.0891
v 0.0000 0.0027 260.9211
v 5120.0000 0.0027 260.9211
v 3199.3477 1416.5676 -1920.0891
v 3199.3472 1416.5676 -5119.9995
v 3199.3472 0.0031 -5119.9995
v 3199.3477 0.0031 -1920.0891
v 5119.3477 1706.6694 -1920.0891
v 5119.3477 1706.6694 -0.0004
v 5380.3584 1416.5684 -0.0004
v 5380.3574 1416.5684 -1920.0891
v 3199.3477 5120.0024 -1920.0891
v 3199.3472 5120.0024 -5119.9995
v 3199.3472 3413.3359 -5119.9995
v 3199.3477 3413.3359 -1920.0891
v 3199.3472 1706.6694 -5119.9995
v 3199.3477 1706.6694 -1920.0891
v 5119.3477 5120.0024 -1920.0891
v 5119.3477 5120.0024 -0.0004
v 5119.3477 3413.3359 -0.0004
v 5119.3477 3413.3359 -1920.0891
v 5380.3584 0.0031 -0.0004
v 5380.3574 0.0031 -1920.0891
v 5119.3472 1706.6694 -5119.9995
v 5380.3574 1416.5684 -5119.9995
v 5119.3472 5120.0024 -5119.9995
v 5119.3472 3413.3359 -5119.9995
v 5380.3574 0.0031 -5119.9995
# 45 vertices

vn 0.0000 0.0000 -1.0000
vn -0.7071 0.0000 -0.7071
vn 0.2128 0.4437 0.8705
vn -0.7973 0.2162 0.5636
vn -0.6347 0.2768 0.7215
vn 0.3451 0.3201 0.8823
vn 0.0000 0.7071 0.7071
vn 0.0000 0.7071 -0.7071
vn -0.5773 0.5773 -0.5773
vn -0.5773 0.5773 0.5773
vn -0.7071 0.0000 0.7071
vn 0.0000 0.0000 1.0000
vn 0.3832 0.0000 0.9236
vn -1.0000 0.0000 -0.0000
vn 0.9336 0.3582 -0.0000
vn 0.8983 0.4166 0.1395
vn 0.8827 0.3200 0.3440
vn -0.7071 0.7071 -0.0000
vn 0.8944 0.4472 -0.0000
vn 1.0000 0.0000 -0.0000
vn 0.9241 0.0000 0.3822
vn 0.5636 0.2162 -0.7973
vn 0.7215 0.2768 -0.6347
vn 0.5773 0.5773 -0.5773
vn 0.7071 0.0000 -0.7071
# 25 vertex normals

vt 1.0000 0.0000 0.0000
vt 0.0000 0.0000 0.0000
vt 0.0000 0.1770 0.0000
vt 1.0000 0.1770 0.0000
vt 1.0000 0.3912 0.0000
vt 0.0000 0.3912 0.0000
vt 0.0000 0.2614 0.0000
vt 1.0000 0.2614 0.0000
vt 1.0000 0.3011 0.0000
vt 1.0000 0.8008 0.0000
vt 0.0000 0.8008 0.0000
vt 0.0000 0.3011 0.0000
vt 0.0000 1.0000 0.0000
vt 1.0000 1.0000 0.0000
vt 1.0000 0.6598 0.0000
vt 0.0000 0.6598 0.0000
vt 1.0000 0.3380 0.0000
vt 0.0000 0.3380 0.0000
vt 1.0000 1.0000 0.0000
vt 0.0000 1.0000 0.0000
vt 0.0000 0.6849 0.0000
vt 1.0000 0.6849 0.0000
vt 0.0000 0.0000 0.0000
vt 1.0000 0.0000 0.0000
vt 0.6148 0.1729 0.0000
vt 0.0000 0.1729 0.0000
vt 0.0000 0.0000 0.0000
vt 0.6148 0.0000 0.0000
vt 0.3646 0.3912 0.0000
vt 0.3646 0.2614 0.0000
vt 0.6148 1.0000 0.0000
vt 0.0000 1.0000 0.0000
vt 0.0000 0.6491 0.0000
vt 0.6148 0.6491 0.0000
vt 0.0000 0.2267 0.0000
vt 0.6148 0.2267 0.0000
vt 0.3646 1.0000 0.0000
vt 0.3646 0.6849 0.0000
vt 0.3646 0.0000 0.0000
vt 0.3626 0.8008 0.0000
vt 0.3626 0.3011 0.0000
vt 1.0000 0.3816 0.0000
vt 0.8578 0.2775 0.0000
vt 1.0000 0.2783 0.0000
vt 1.0000 0.3817 0.0000
vt 1.0000 0.2383 0.0000
vt 0.8754 0.2370 0.0000
vt 0.8666 0.0000 0.0000
vt 0.9515 0.0000 0.0000
vt 0.3700 0.6615 0.0000
vt 0.3700 1.0000 0.0000
vt 0.0000 1.0000 0.0000
vt 0.0000 0.6615 0.0000
vt 0.0000 0.2710 0.0000
vt 0.3700 0.2710 0.0000
vt 0.0000 0.2161 0.0000
vt 0.4194 0.2161 0.0000
vt 0.0000 0.0000 0.0000
vt 0.4194 0.0000 0.0000
vt 0.4143 0.6575 0.0000
vt 0.4143 1.0000 0.0000
vt 0.0000 1.0000 0.0000
vt 0.0000 0.6575 0.0000
vt 0.0000 0.2750 0.0000
vt 0.4143 0.2750 0.0000
vt 0.0000 0.2214 0.0000
vt 0.4143 0.2214 0.0000
vt 0.0000 0.0000 0.0000
vt 0.4143 0.0000 0.0000
# 69 texture coords

usemtl wire_204204204
s off
f 1/1/1 2/2/2 3/3/2 
f 3/3/2 4/4/1 1/1/1 
f 5/5/3 6/6/4 7/7/5 
f 7/7/5 8/8/6 5/5/3 
f 9/9/7 10/10/8 11/11/9 
f 11/11/9 12/12/10 9/9/7 
f 11/13/9 10/14/8 13/15/1 
f 13/15/1 14/16/2 11/13/9 
f 14/16/2 13/15/1 15/17/1 
f 15/17/1 16/18/2 14/16/2 
f 9/19/7 12/20/10 17/21/11 
f 17/21/11 18/22/12 9/19/7 
f 18/22/12 17/21/11 6/6/4 
f 6/6/4 5/5/3 18/22/12 
f 8/8/6 7/7/5 19/23/11 
f 19/23/11 20/24/13 8/8/6 
f 21/25/14 22/26/2 23/27/2 
f 23/27/2 24/28/14 21/25/14 
f 25/29/15 26/6/16 27/7/17 
f 27/7/17 28/30/15 25/29/15 
f 29/31/18 30/32/9 31/33/2 
f 31/33/2 32/34/14 29/31/18 
f 32/34/14 31/33/2 33/35/2 
f 33/35/2 34/36/14 32/34/14 
f 35/37/19 36/20/20 37/21/20 
f 37/21/20 38/38/20 35/37/19 
f 38/38/20 37/21/20 26/6/16 
f 26/6/16 25/29/15 38/38/20 
f 28/30/15 27/7/17 39/23/21 
f 39/23/21 40/39/20 28/30/15 
f 41/5/22 25/29/15 28/30/15 
f 28/30/15 42/8/23 41/5/22 
f 43/9/24 30/10/9 29/40/18 
f 29/40/18 35/41/19 43/9/24 
f 43/19/24 35/37/19 38/38/20 
f 38/38/20 44/22/25 43/19/24 
f 44/22/25 38/38/20 25/29/15 
f 25/29/15 41/5/22 44/22/25 
f 42/8/23 28/30/15 40/39/20 
f 40/39/20 45/24/25 42/8/23 
f 5/42/3 8/43/6 27/44/17 
f 27/44/17 26/45/16 5/42/3 
f 27/46/17 8/47/6 20/48/13 
f 20/48/13 39/49/21 27/46/17 
f 17/50/11 12/51/10 11/52/9 
f 11/52/9 14/53/2 17/50/11 
f 16/54/2 6/55/4 17/50/11 
f 17/50/11 14/53/2 16/54/2 
f 34/36/14 33/35/2 22/26/2 
f 22/26/2 21/25/14 34/36/14 
f 16/18/2 15/17/1 4/4/1 
f 4/4/1 3/3/2 16/18/2 
f 6/55/4 16/54/2 3/56/2 
f 3/56/2 7/57/5 6/55/4 
f 2/58/2 19/59/11 7/57/5 
f 7/57/5 3/56/2 2/58/2 
f 31/60/2 30/61/9 43/62/24 
f 43/62/24 44/63/25 31/60/2 
f 41/64/22 33/65/2 31/60/2 
f 31/60/2 44/63/25 41/64/22 
f 42/66/23 22/67/2 33/65/2 
f 33/65/2 41/64/22 42/66/23 
f 22/67/2 42/66/23 45/68/25 
f 45/68/25 23/69/2 22/67/2 
# 64 faces

