# 3ds Max Wavefront OBJ Exporter v0.99 - (c)2007 guruware
# File Created: 21.08.2022 18:44:01

mtllib wall_corner_in.mtl

#
# object Cube_004
#

o Cube_004

v -4860.2983 0.0027 2181.0933
v -0.0029 0.0027 2181.0999
v -0.0029 1416.5676 2181.0999
v -4860.2983 1416.5676 2181.0933
v -5120.0000 1706.6694 -0.0056
v -0.0000 1706.6694 0.0017
v -0.0000 1416.5680 0.0017
v -5120.0000 1416.5680 -0.0056
v -5120.0000 5120.0024 0.0823
v -5120.0024 5120.0024 1920.0823
v -0.0026 5120.0024 1920.0891
v -0.0000 5120.0024 0.0891
v -5120.0024 3413.3359 1920.0823
v -0.0026 3413.3359 1920.0891
v -5120.0024 1706.6694 1920.0823
v -0.0026 1706.6694 1920.0891
v -0.0000 3413.3359 0.0891
v -5120.0000 3413.3359 0.0823
v -0.0000 0.0027 0.0017
v -5120.0000 0.0027 -0.0056
v -2939.6458 1416.5676 1920.0852
v -2939.6494 1416.5676 5119.9956
v -2939.6494 0.0031 5119.9956
v -2939.6458 0.0031 1920.0852
v -5120.0000 1706.6694 -0.0066
v -5120.0000 1416.5684 -0.0066
v -5120.0024 1416.5684 1920.0823
v -3199.3503 5120.0024 1920.0848
v -3199.3540 5120.0024 5119.9951
v -3199.3540 3413.3359 5119.9951
v -3199.3503 3413.3359 1920.0848
v -3199.3540 1706.6694 5119.9951
v -3199.3503 1706.6694 1920.0848
v -5119.3501 5120.0024 1920.0823
v -5119.3477 5120.0024 -0.0065
v -5119.3477 3413.3359 -0.0065
v -5119.3501 3413.3359 1920.0823
v -5120.0000 0.0031 -0.0066
v -5120.0024 0.0031 1920.0823
v -5120.0068 1706.6694 5119.9927
v -5120.0068 1416.5684 5119.9927
v -5119.3540 5120.0024 5119.9927
v -5119.3540 3413.3359 5119.9927
v -5120.0068 0.0031 5119.9927
# 44 vertices

vn -0.0000 0.0000 1.0000
vn 0.7071 0.0000 0.7071
vn 0.6347 0.2768 0.7215
vn -0.0000 0.4138 0.9103
vn 0.0000 -0.0000 -1.0000
vn 0.7071 -0.0000 -0.7071
vn 0.0000 0.7071 -0.7071
vn -0.0000 0.7071 0.7071
vn 0.5773 0.5773 0.5773
vn 0.5773 0.5773 -0.5773
vn -0.0000 0.2747 0.9615
vn 0.7972 0.2162 0.5636
vn 0.9340 0.3570 0.0000
vn 0.7216 0.2758 0.6348
vn 1.0000 0.0000 0.0000
vn -1.0000 0.0002 -0.0000
vn -1.0000 -0.0000 -0.0000
vn 0.7071 0.7071 0.0000
vn 0.5642 0.2156 0.7969
vn -0.8944 0.4472 -0.0000
vn -0.7071 0.0001 0.7070
vn -0.7071 0.0000 0.7071
vn -0.5773 0.5773 0.5773
vn -0.7070 0.0001 0.7071
# 24 vertex normals

vt 0.9885 0.0161 0.0000
vt 0.0132 0.0161 0.0000
vt 0.0132 0.2708 0.0000
vt 0.9885 0.2708 0.0000
vt 0.9893 0.3912 0.0000
vt 0.0140 0.3912 0.0000
vt 0.0140 0.2614 0.0000
vt 0.9893 0.2614 0.0000
vt 0.9787 0.3011 0.0000
vt 0.9787 0.8008 0.0000
vt 0.0168 0.8008 0.0000
vt 0.0168 0.3011 0.0000
vt 0.0132 0.9817 0.0000
vt 0.9885 0.9817 0.0000
vt 0.9885 0.6598 0.0000
vt 0.0132 0.6598 0.0000
vt 0.9885 0.4317 0.0000
vt 0.0132 0.4317 0.0000
vt 0.9893 0.9787 0.0000
vt 0.0140 0.9787 0.0000
vt 0.0140 0.6849 0.0000
vt 0.9893 0.6849 0.0000
vt 0.0140 0.0176 0.0000
vt 0.9893 0.0176 0.0000
vt 0.6148 0.2890 0.0000
vt 0.0205 0.2890 0.0000
vt 0.0205 0.0201 0.0000
vt 0.6148 0.0201 0.0000
vt 0.3646 0.3912 0.0000
vt 0.3646 0.2614 0.0000
vt 0.6148 0.9661 0.0000
vt 0.0205 0.9661 0.0000
vt 0.0205 0.6491 0.0000
vt 0.6148 0.6491 0.0000
vt 0.0205 0.2493 0.0000
vt 0.6148 0.2493 0.0000
vt 0.3646 0.9787 0.0000
vt 0.3646 0.6849 0.0000
vt 0.3646 0.0176 0.0000
vt 0.3626 0.8008 0.0000
vt 0.3626 0.3011 0.0000
vt 0.3700 0.6615 0.0000
vt 0.3700 0.9845 0.0000
vt 0.0066 0.9845 0.0000
vt 0.0066 0.6615 0.0000
vt 0.0066 0.2710 0.0000
vt 0.3700 0.2710 0.0000
vt 0.6148 0.4202 0.0000
vt 0.0205 0.4202 0.0000
vt 0.0066 0.2161 0.0000
vt 0.4194 0.2161 0.0000
vt 0.0066 0.0155 0.0000
vt 0.4194 0.0155 0.0000
vt 0.4143 0.6575 0.0000
vt 0.4143 0.9726 0.0000
vt 0.0599 0.9726 0.0000
vt 0.0599 0.6575 0.0000
vt 0.0599 0.2750 0.0000
vt 0.4143 0.2750 0.0000
vt 0.0117 0.2214 0.0000
vt 0.4143 0.2214 0.0000
vt 0.0117 0.0274 0.0000
vt 0.4143 0.0274 0.0000
# 63 texture coords

usemtl wire_204204204
s off
f 1/1/1 2/2/2 3/3/3 
f 3/3/3 4/4/4 1/1/1 
f 5/5/5 6/6/6 7/7/6 
f 7/7/6 8/8/5 5/5/5 
f 9/9/7 10/10/8 11/11/9 
f 11/11/9 12/12/10 9/9/7 
f 11/13/9 10/14/8 13/15/1 
f 13/15/1 14/16/2 11/13/9 
f 14/16/2 13/15/1 15/17/11 
f 15/17/11 16/18/12 14/16/2 
f 9/19/7 12/20/10 17/21/6 
f 17/21/6 18/22/5 9/19/7 
f 18/22/5 17/21/6 6/6/6 
f 6/6/6 5/5/5 18/22/5 
f 8/8/5 7/7/6 19/23/6 
f 19/23/6 20/24/5 8/8/5 
f 21/25/13 22/26/14 23/27/2 
f 23/27/2 24/28/15 21/25/13 
f 15/29/16 25/6/16 26/7/17 
f 26/7/17 27/30/17 15/29/16 
f 28/31/18 29/32/9 30/33/2 
f 30/33/2 31/34/15 28/31/18 
f 31/34/15 30/33/2 32/35/19 
f 32/35/19 33/36/13 31/34/15 
f 34/37/20 35/20/17 36/21/16 
f 36/21/16 37/38/16 34/37/20 
f 37/38/16 36/21/16 25/6/16 
f 25/6/16 15/29/16 37/38/16 
f 27/30/17 26/7/17 38/23/17 
f 38/23/17 39/39/17 27/30/17 
f 40/5/21 15/29/16 27/30/17 
f 27/30/17 41/8/22 40/5/21 
f 42/9/23 29/10/9 28/40/18 
f 28/40/18 34/41/20 42/9/23 
f 42/19/23 34/37/20 37/38/16 
f 37/38/16 43/22/24 42/19/23 
f 43/22/24 37/38/16 15/29/16 
f 15/29/16 40/5/21 43/22/24 
f 41/8/22 27/30/17 39/39/17 
f 39/39/17 44/24/22 41/8/22 
f 17/42/6 12/43/10 11/44/9 
f 11/44/9 14/45/2 17/42/6 
f 16/46/12 6/47/6 17/42/6 
f 17/42/6 14/45/2 16/46/12 
f 33/48/13 32/49/19 22/26/14 
f 22/26/14 21/25/13 33/48/13 
f 16/18/12 15/17/11 4/4/4 
f 4/4/4 3/3/3 16/18/12 
f 6/47/6 16/46/12 3/50/3 
f 3/50/3 7/51/6 6/47/6 
f 2/52/2 19/53/6 7/51/6 
f 7/51/6 3/50/3 2/52/2 
f 30/54/2 29/55/9 42/56/23 
f 42/56/23 43/57/24 30/54/2 
f 40/58/21 32/59/19 30/54/2 
f 30/54/2 43/57/24 40/58/21 
f 41/60/22 22/61/14 32/59/19 
f 32/59/19 40/58/21 41/60/22 
f 22/61/14 41/60/22 44/62/22 
f 44/62/22 23/63/2 22/61/14 
# 60 faces

